User Type,Username,Date,Text
,digitsat,2007-07-03T19:24Z,"First of all TAHNK YOU for Miles and the lossless codec.

FLAC is a very good format to rip music, if you use EAC for ripping please set it to generate a .CUE file, so with the cue sheet can burn a cd directly from EAC and have a perfect copy of the CD"
[T],Superloozer,2007-07-03T21:02Z,"I'm running linux, so I can't run that program. But next time I'll use a program that dumps CUE too. However, if I were to guess, a CUE sheet would go something like ...

  TRACK 01 AUDIO
    INDEX 01 00:00:00
  TRACK 02 AUDIO
    INDEX 01 02:34:20
  TRACK 03 AUDIO
    INDEX 01 05:47:15
  TRACK 04 AUDIO
    INDEX 01 09:07:22
  TRACK 05 AUDIO
    INDEX 01 12:18:45
  TRACK 06 AUDIO
    INDEX 01 14:53:30
  TRACK 07 AUDIO
    INDEX 01 17:41:17
  TRACK 08 AUDIO
    INDEX 01 20:51:17
  TRACK 09 AUDIO
    INDEX 01 23:52:47
  TRACK 10 AUDIO
    INDEX 01 26:58:50
  TRACK 11 AUDIO
    INDEX 01 29:16:52
  TRACK 12 AUDIO
    INDEX 01 32:31:40"
,digitsat,2007-07-03T23:54Z,"Ok Superloozer, thanks again"
,tommcd,2009-07-11T10:22Z,Thanks a lot for this classic album by one of the great legends of jazz.
,RadlinLastway,2010-05-28T14:11Z,Thanks Superloozer for the excellent upload. I'l help in seeding this for a while :)
